<svg xmlns="http://www.w3.org/2000/svg" version="1.1" xmlns:xlink="http://www.w3.org/1999/xlink" xmlns:svgjs="http://svgjs.com/svgjs" width="512" height="512" x="0" y="0" viewBox="0 0 32 32" style="enable-background:new 0 0 512 512" xml:space="preserve" class=""><g><g fill="#6621ba"><path d="M8.548 10.931h6.91a.9.9 0 0 0 0-1.8h-6.91a.9.9 0 0 0 0 1.8zM22.269 15.99a.9.9 0 0 0-.9-.9H8.539a.9.9 0 0 0 0 1.8h12.83a.9.9 0 0 0 .9-.9zM8.542 21.067a.9.9 0 0 0 0 1.8h5.122a.9.9 0 0 0 0-1.8z" fill="#5e72e4" data-original="#6621ba"></path><path d="M29.479 13.93a.9.9 0 0 0-.9.9v12.21c0 1.136-.924 2.06-2.06 2.06H5.479a2.062 2.062 0 0 1-2.06-2.06V4.96c0-1.136.924-2.06 2.06-2.06h11.18a.9.9 0 0 0 0-1.8H5.479a3.865 3.865 0 0 0-3.86 3.86v22.08a3.864 3.864 0 0 0 3.86 3.86h21.04a3.865 3.865 0 0 0 3.86-3.86V14.83a.9.9 0 0 0-.9-.9z" fill="#5e72e4" data-original="#6621ba"></path></g><path fill="#5e72e4" d="M24.254 13.355c3.379 0 6.127-2.749 6.127-6.128S27.633 1.1 24.254 1.1s-6.127 2.749-6.127 6.128 2.748 6.127 6.127 6.127zm-4.231-5.227h1.22c.063.917.22 1.807.471 2.587a4.332 4.332 0 0 1-1.691-2.587zM24.254 2.9c.258.022 1.037 1.137 1.207 3.427h-2.414c.17-2.289.949-3.405 1.207-3.427zm1.207 5.228c-.17 2.29-.949 3.405-1.207 3.427-.258-.022-1.037-1.137-1.207-3.427zm1.332 2.587c.251-.78.409-1.67.471-2.587h1.22a4.323 4.323 0 0 1-1.691 2.587zm1.691-4.388h-1.22c-.063-.917-.22-1.807-.471-2.587a4.326 4.326 0 0 1 1.691 2.587zM21.715 3.74a10.98 10.98 0 0 0-.471 2.587h-1.22a4.326 4.326 0 0 1 1.691-2.587z" data-original="#f98a17" class=""></path></g></svg>